<svg xmlns="http://www.w3.org/2000/svg" viewBox="0 0 32 32" width="32" height="32">
  <path fill="#25D366" d="M16 0a16 16 0 0 0-13.8 24l-2.2 8 8.2-2.1A16 16 0 1 0 16 0z"/>
  <path fill="#fff" d="M12.3 8.6c-.3-.7-.6-.7-.9-.7h-.7c-.3 0-.7.1-1 .5s-1.3 1.3-1.3 3.1 1.4 3.6 1.5 3.8c.2.2 2.6 4.2 6.5 5.7 3.2 1.3 3.9 1 4.6.9.7-.1 2.2-.9 2.5-1.8.3-.9.3-1.6.2-1.8-.1-.2-.4-.3-.8-.5s-2.2-1.1-2.6-1.2c-.3-.1-.6-.2-.8.2-.2.3-.9 1.1-1.1 1.4-.2.2-.4.2-.8.1-.4-.2-1.6-.6-3-1.9-1.1-1-1.9-2.2-2.1-2.6-.2-.4 0-.6.2-.8.2-.2.4-.4.5-.6.2-.2.2-.4.3-.6.1-.2 0-.5 0-.6 0-.2-.8-2-1.1-2.7z"/>
</svg>
